<?xml version="1.0" standalone="no"?>
<!DOCTYPE svg PUBLIC "-//W3C//DTD SVG 20010904//EN"
 "http://www.w3.org/TR/2001/REC-SVG-20010904/DTD/svg10.dtd">
<svg version="1.0" xmlns="http://www.w3.org/2000/svg"
 width="1000.000000pt" height="1000.000000pt" viewBox="0 0 1000.000000 1000.000000"
 preserveAspectRatio="xMidYMid meet">
<metadata>
Created by potrace 1.14, written by Peter Selinger 2001-2017
</metadata>
<g transform="translate(0.000000,1000.000000) scale(0.100000,-0.100000)"
fill="#000000" stroke="none">
<path d="M5707 7203 c-2 -1 -29 -5 -60 -8 -414 -40 -755 -250 -960 -591 -106
-177 -184 -452 -190 -669 -1 -47 -5 -85 -8 -85 -3 0 -81 120 -174 268 -92 147
-207 328 -255 402 -47 75 -89 142 -93 150 -4 8 -74 121 -156 250 l-149 235
-306 3 -306 2 0 -1335 0 -1335 308 0 307 0 -1 750 c-1 412 0 750 2 750 1 0 53
-80 115 -177 129 -203 177 -278 266 -416 34 -53 63 -102 63 -107 0 -6 5 -10
10 -10 6 0 10 -4 10 -8 0 -5 96 -159 213 -343 117 -184 227 -358 245 -386 l32
-53 269 0 c206 0 270 3 273 13 2 6 4 338 3 737 -1 749 2 819 40 950 54 181
169 318 328 390 36 16 75 32 88 34 97 22 134 27 209 28 180 3 326 -47 428
-145 44 -43 96 -129 118 -197 9 -30 20 -58 23 -62 6 -6 30 -3 191 27 52 10
102 19 110 20 8 1 29 5 45 8 17 4 46 9 65 12 19 3 73 13 120 22 47 9 90 16 97
16 14 0 10 29 -23 143 -93 325 -336 564 -669 658 -158 44 -268 58 -473 60 -84
1 -154 1 -155 -1z"/>
<path d="M5804 5981 c-2 -2 -4 -127 -4 -278 l0 -273 302 -2 303 -3 0 -109 c0
-74 -4 -113 -12 -122 -22 -21 -136 -81 -213 -112 -158 -62 -330 -82 -472 -55
-40 8 -82 15 -93 16 -19 2 -19 -6 -20 -282 -1 -188 3 -284 10 -287 53 -18 360
-27 470 -13 108 14 122 16 240 43 231 54 509 181 669 308 l76 61 0 553 c0 436
-3 554 -12 555 -61 3 -1241 3 -1244 0z"/>
<path d="M3073 4051 l0 -161 33 0 34 0 -2 88 c-1 49 2 87 7 88 9 1 45 -51 103
-148 14 -22 25 -28 53 -28 l35 0 0 160 0 161 -31 -3 -30 -3 -2 -75 c-1 -41 -2
-86 -2 -99 -1 -19 -17 0 -64 75 -59 92 -66 99 -99 102 l-35 3 0 -160z"/>
<path d="M3410 4050 l0 -160 33 0 34 0 0 160 0 160 -34 0 -33 0 0 -160z"/>
<path d="M3540 4049 l0 -160 32 3 33 3 1 102 c0 57 3 105 6 108 3 3 15 -34 27
-82 12 -48 24 -95 26 -103 2 -8 4 -18 4 -22 1 -5 15 -8 31 -8 29 0 38 9 44 42
11 59 40 174 45 180 3 4 7 -34 8 -85 2 -148 -1 -137 32 -137 36 0 37 8 33 193
l-3 127 -49 0 -49 0 -11 -42 c-6 -24 -16 -57 -21 -75 -6 -17 -12 -44 -15 -60
-3 -15 -7 -29 -9 -31 -2 -2 -13 29 -25 70 -44 151 -35 138 -91 138 l-49 0 0
-161z"/>
<path d="M3923 4050 l0 -160 123 0 c68 0 125 3 125 8 10 54 13 52 -87 52 l-94
0 0 35 0 35 83 0 84 0 -2 28 c-1 27 -1 27 -83 30 l-82 3 0 34 0 35 90 0 90 0
0 30 0 30 -124 0 -123 0 0 -160z"/>
<path d="M4210 4180 c0 -29 1 -30 49 -30 l49 0 0 -97 c1 -182 -2 -165 35 -161
l32 3 0 125 0 125 48 3 c45 3 47 5 47 33 l0 29 -130 0 -130 0 0 -30z"/>
<path d="M4714 4192 c-71 -33 -102 -139 -63 -219 38 -79 147 -105 241 -58 43
21 43 22 46 83 l3 62 -73 0 -73 0 0 -30 c-1 -28 2 -30 37 -30 46 0 52 -25 11
-41 -106 -41 -192 83 -113 162 24 25 36 29 71 27 28 -1 46 -9 58 -24 12 -15
26 -21 45 -19 38 5 38 6 15 44 -34 57 -132 78 -205 43z"/>
<path d="M5004 4050 l0 -160 33 0 33 0 0 65 c0 61 1 65 23 65 30 0 45 -13 91
-77 35 -49 41 -53 77 -53 l40 0 -41 60 c-22 32 -47 63 -56 68 -13 7 -10 11 15
22 35 14 48 32 51 70 3 40 1 46 -25 72 -24 24 -32 26 -133 27 l-108 2 0 -161z
m190 84 c9 -8 16 -17 16 -19 0 -2 -7 -11 -16 -19 -10 -11 -34 -16 -70 -16
l-54 0 0 35 0 35 54 0 c36 0 60 -5 70 -16z"/>
<path d="M5396 4108 c-21 -57 -42 -112 -47 -123 -4 -11 -15 -37 -23 -57 l-15
-38 34 0 c30 0 35 4 47 35 l12 36 70 -3 c70 -3 70 -3 80 -35 8 -30 13 -33 46
-33 l38 0 -60 160 -61 160 -41 0 -41 0 -39 -102z m102 -28 l21 -60 -45 0 c-49
0 -50 2 -30 51 7 19 16 42 19 52 4 9 8 17 11 17 2 0 13 -27 24 -60z"/>
<path d="M5674 4050 l0 -160 33 0 33 0 0 60 0 60 51 0 c107 0 155 55 126 143
-14 42 -53 57 -155 57 l-88 0 0 -160z m170 85 c15 -16 11 -44 -8 -57 -6 -4
-30 -8 -53 -8 l-43 0 0 40 0 40 44 0 c27 0 51 -6 60 -15z"/>
<path d="M5984 4050 l0 -160 33 0 33 0 0 65 0 65 65 0 65 0 0 -65 0 -65 33 0
33 0 0 160 0 160 -33 0 -33 0 0 -65 0 -65 -65 0 -65 0 0 65 0 65 -33 0 -33 0
0 -160z"/>
<path d="M6322 4050 l-1 -160 34 0 34 0 -1 160 0 160 -33 0 -32 0 -1 -160z"/>
<path d="M6537 4200 c-40 -12 -58 -29 -78 -75 -29 -67 -15 -160 31 -198 71
-60 181 -44 222 33 16 30 16 35 3 43 -28 15 -55 16 -55 2 0 -22 -41 -55 -69
-55 -14 0 -37 9 -51 19 -20 16 -25 29 -27 76 -1 49 2 61 22 81 32 32 79 32
109 -1 21 -22 57 -28 74 -10 10 9 -17 54 -43 71 -30 20 -99 27 -138 14z"/>
<path d="M6810 4183 c-35 -29 -41 -78 -12 -110 19 -22 72 -43 107 -43 13 0 32
-8 44 -17 20 -17 21 -19 6 -40 -22 -31 -77 -31 -105 -1 -11 12 -20 25 -20 29
0 15 -55 1 -58 -14 -9 -45 58 -97 126 -97 101 0 159 60 126 130 -14 30 -41 44
-111 60 -64 14 -86 36 -58 56 30 23 71 17 92 -12 15 -20 26 -25 49 -22 29 3
30 5 22 35 -12 45 -50 68 -120 70 -49 1 -63 -2 -88 -24z"/>
<path d="M3067 3693 c-2 -5 -3 -46 -3 -93 l1 -85 53 -3 c31 -2 52 1 52 7 0 6
-18 11 -40 11 -39 0 -40 1 -40 35 0 34 1 35 41 35 25 0 38 4 34 10 -4 6 -14
10 -23 9 -44 -4 -52 1 -52 31 0 26 4 30 28 31 15 1 33 1 40 0 6 -1 12 3 12 9
0 11 -97 14 -103 3z"/>
<path d="M3200 3692 c0 -4 12 -24 26 -45 28 -42 30 -31 -22 -112 -15 -22 -15
-25 -1 -25 9 0 26 18 38 40 l23 40 23 -40 c13 -22 31 -40 39 -40 11 0 9 9 -9
38 -13 20 -26 42 -30 48 -3 6 7 32 23 58 21 32 25 46 16 46 -8 0 -24 -16 -36
-35 -12 -19 -23 -35 -25 -35 -2 0 -12 16 -24 35 -18 32 -41 47 -41 27z"/>
<path d="M3384 3678 c-29 -23 -40 -78 -24 -117 13 -33 54 -54 96 -49 43 5 40
24 -4 20 -44 -4 -68 16 -76 64 -8 44 30 84 79 84 19 0 35 5 35 10 0 17 -80 8
-106 -12z"/>
<path d="M3530 3605 l0 -95 55 0 c30 0 55 5 55 10 0 6 -20 10 -44 10 -44 0
-44 0 -42 33 2 29 6 32 39 35 20 2 37 8 37 13 0 6 -10 10 -22 9 -47 -4 -55 0
-54 25 2 31 5 34 48 37 54 3 35 18 -23 18 l-49 0 0 -95z"/>
<path d="M3670 3605 l0 -95 55 0 c30 0 55 4 55 9 0 4 -10 8 -22 8 -68 1 -64
-5 -63 88 1 64 -2 85 -12 85 -10 0 -13 -24 -13 -95z"/>
<path d="M3805 3608 l0 -93 53 -3 c34 -2 52 1 52 8 0 6 -12 11 -27 10 -54 -4
-53 -5 -53 85 0 62 -3 85 -13 85 -9 0 -12 -24 -12 -92z"/>
<path d="M3940 3605 l0 -95 55 0 c30 0 55 5 55 10 0 6 -20 10 -43 10 -43 0
-44 0 -43 35 1 34 2 35 38 35 21 0 38 4 38 9 0 4 -10 7 -22 7 -35 -3 -55 11
-54 36 1 20 7 23 44 26 58 4 43 22 -19 22 l-49 0 0 -95z"/>
<path d="M4089 3670 c-3 -114 0 -160 11 -160 6 0 10 32 10 77 l0 78 48 -77
c49 -80 71 -96 73 -53 3 106 0 165 -11 165 -6 0 -10 -32 -10 -77 l0 -77 -33
55 c-56 92 -61 99 -74 99 -8 0 -13 -13 -14 -30z"/>
<path d="M4250 3690 c0 -5 14 -10 30 -10 l30 0 0 -85 c0 -50 4 -85 10 -85 12
0 12 4 14 95 l1 70 33 3 c18 2 30 8 27 13 -8 12 -145 12 -145 -1z"/>
<path d="M4521 3622 c3 -67 8 -84 24 -97 25 -20 84 -13 105 13 20 24 21 153 2
160 -9 3 -12 -14 -12 -63 0 -77 -12 -105 -44 -105 -37 0 -50 26 -51 98 0 46
-4 67 -14 70 -11 4 -13 -12 -10 -76z"/>
<path d="M4709 3690 c0 -5 0 -39 0 -75 0 -101 0 -105 11 -105 6 0 10 30 10 70
0 40 4 70 10 70 6 0 10 -5 10 -11 0 -15 79 -129 90 -129 9 0 12 26 12 110 0
66 -2 80 -13 80 -7 0 -9 -26 -7 -75 2 -41 2 -75 2 -75 -1 0 -32 47 -75 112
-23 36 -48 50 -50 28z"/>
<path d="M4907 3693 c-3 -5 -5 -28 -6 -53 0 -25 -3 -64 -5 -87 -4 -33 -1 -43
10 -43 8 0 13 3 13 8 -1 4 -1 36 0 72 2 73 9 69 41 -24 10 -28 24 -51 30 -51
6 0 22 31 36 69 13 38 26 72 29 74 3 3 5 -19 5 -49 0 -62 8 -99 22 -99 5 0 7
26 4 58 -2 31 -5 74 -5 95 -1 29 -5 37 -19 37 -14 0 -25 -19 -44 -77 -15 -43
-29 -71 -31 -63 -37 117 -63 161 -80 133z"/>
<path d="M5142 3609 c-18 -51 -30 -95 -26 -98 7 -8 34 28 34 46 0 8 13 13 36
13 30 0 37 -4 45 -30 6 -16 17 -30 25 -30 17 0 19 -11 -19 95 -20 55 -38 91
-48 93 -11 2 -24 -22 -47 -89z m61 19 l16 -38 -28 0 c-29 0 -29 0 -19 40 6 23
12 39 13 38 2 -2 10 -20 18 -40z"/>
<path d="M5255 3690 c-4 -6 7 -10 27 -10 l33 0 0 -82 c0 -56 4 -83 13 -86 9
-3 12 18 12 82 l0 86 30 0 c17 0 30 5 30 10 0 6 -30 10 -69 10 -39 0 -73 -4
-76 -10z"/>
<path d="M5454 3690 c-65 -26 -74 -128 -14 -163 34 -20 100 -23 100 -4 0 9
-12 11 -39 9 -32 -3 -42 1 -59 22 -47 60 8 150 76 125 18 -7 23 -6 20 3 -5 16
-55 20 -84 8z"/>
<path d="M5580 3604 c0 -72 3 -95 13 -91 7 2 12 20 11 45 l0 42 48 0 48 0 0
-46 c0 -32 4 -44 12 -42 18 6 18 180 1 185 -9 3 -13 -8 -13 -36 l0 -41 -48 0
-49 0 2 40 c1 28 -2 40 -12 40 -10 0 -13 -22 -13 -96z"/>
<path d="M5767 3693 c-2 -5 -3 -46 -3 -93 l1 -85 53 -3 c34 -2 52 1 52 8 0 7
-14 10 -37 8 -37 -3 -38 -2 -41 35 -3 36 -3 37 32 37 20 0 36 5 36 11 0 5 -8
9 -17 8 -45 -4 -53 1 -53 31 0 31 4 33 53 32 15 0 27 4 27 9 0 11 -97 12 -103
2z"/>
<path d="M5905 3606 l-1 -96 39 0 c83 0 130 46 120 117 -7 46 -33 64 -100 70
l-58 5 0 -96z m123 47 c34 -46 -7 -123 -65 -123 l-33 0 0 73 c0 41 2 76 6 79
10 11 79 -11 92 -29z"/>
<path d="M6160 3603 l0 -94 53 2 c87 4 130 68 96 143 -15 31 -52 47 -106 44
l-43 -1 0 -94z m112 60 c9 -10 19 -32 22 -49 9 -42 -29 -84 -76 -84 l-34 0 1
75 0 75 36 0 c22 0 42 -7 51 -17z"/>
<path d="M6350 3605 l0 -95 55 0 c32 0 55 4 55 11 0 5 -8 9 -17 8 -58 -5 -69
0 -69 34 1 30 4 32 39 35 45 4 49 17 6 20 -42 3 -46 7 -46 37 0 26 10 30 66
25 14 -1 21 2 17 9 -4 6 -29 11 -57 11 l-49 0 0 -95z"/>
<path d="M6512 3684 c-40 -28 -22 -69 41 -93 50 -19 29 -66 -27 -59 -40 4 -46
-15 -7 -20 38 -6 71 7 80 31 11 29 -2 53 -42 73 -18 9 -35 22 -39 28 -11 17
13 37 41 36 40 -3 47 -1 31 10 -22 14 -53 12 -78 -6z"/>
<path d="M6635 3608 c0 -63 4 -93 13 -96 9 -3 12 21 12 92 0 71 -3 96 -13 96
-9 0 -12 -24 -12 -92z"/>
<path d="M6755 3691 c-51 -21 -72 -76 -50 -128 16 -37 36 -49 91 -52 46 -3 63
12 59 49 -2 14 -4 30 -4 37 -1 6 -14 11 -31 11 -33 -1 -42 -18 -10 -18 16 0
20 -7 20 -30 0 -27 -3 -30 -33 -30 -68 0 -99 69 -56 124 18 23 28 27 63 24 24
-1 39 1 36 7 -6 13 -59 16 -85 6z"/>
<path d="M6890 3605 c0 -57 4 -95 10 -95 11 0 12 14 12 98 0 28 1 52 3 52 1 0
24 -34 51 -75 27 -41 54 -75 61 -75 10 0 13 24 13 95 0 57 -4 95 -10 95 -10 0
-13 -22 -12 -104 l1 -48 -50 76 c-68 103 -79 101 -79 -19z"/>
<path d="M4400 3531 c-5 -11 -10 -27 -10 -35 0 -28 16 -17 27 19 12 37 1 48
-17 16z"/>
</g>
</svg>
