<?xml version="1.0" encoding="UTF-8"?>
<svg id="logo" xmlns="http://www.w3.org/2000/svg" viewBox="0 0 250 250">
  <defs>
    <style>
      .cls-1 {
        font-family: Arial-BoldMT, Arial;
        font-size: 11.12px;
        font-weight: 700;
      }

      .cls-1, .cls-2, .cls-3 {
        fill: #42065b;
      }

      .cls-2 {
        stroke-width: 0px;
      }

      .cls-3 {
        font-family: MyriadPro-Regular, 'Myriad Pro';
        font-size: 6.9px;
      }
    </style>
  </defs>
  <g>
    <g id="N">
      <path class="cls-2" d="M131.13,92.41c-1.44,2.95-2.17,6.68-2.17,11.14,0,1.07.04,2.09.12,3.08h-.07v31.06h-13.45l-24.03-37.84v37.84h-15.26v-66.64h15.17l20.92,33.23,3.51,5.57v-22.3c.3-.64.62-1.26.96-1.87,2.99-5.4,7.42-9.6,13.17-12.47.37-.19.75-.37,1.13-.53v19.73Z"/>
      <path class="cls-2" d="M175.96,91.29l-15.98,2.91-.38-1.3c-.83-2.82-2.34-4.98-4.62-6.6-2.28-1.61-5.19-2.43-8.66-2.43-5.39,0-9.53,1.59-12.67,4.87-1,1.05-1.84,2.27-2.52,3.67-1.44,2.95-2.17,6.68-2.17,11.14,0,1.07.04,2.09.12,3.08h-.07v27.99c-.19-.09-.39-.19-.58-.3-5.33-2.93-9.4-7.18-12.08-12.64-2.62-5.31-3.96-11.17-3.99-17.4v-.21c0-6.07,1.18-11.62,3.51-16.52.3-.64.62-1.26.96-1.87,2.99-5.4,7.42-9.6,13.17-12.47.37-.19.75-.37,1.13-.53,4.18-1.86,9.28-2.8,15.19-2.8,8.4,0,15.1,1.77,19.9,5.26,4.85,3.52,8.01,8.44,9.39,14.63l.35,1.52Z"/>
    </g>
    <path id="G" class="cls-2" d="M176.5,100.49v27.5l-.47.44c-2.9,2.73-7.11,5.15-12.52,7.19-5.39,2.04-10.94,3.07-16.47,3.07-2.48,0-4.85-.18-7.12-.54v-14.45c1.88.68,3.97,1.01,6.27,1.01,2.57,0,5.19-.5,7.78-1.49,2.36-.89,4.44-1.97,6.19-3.2v-5.81h-15.11v-13.72h31.45Z"/>
  </g>
  <text class="cls-1" transform="translate(76.07 152.81) scale(1.04 1)"><tspan x="0" y="0">NIMET GRAPHICS</tspan></text>
  <text class="cls-3" transform="translate(76.11 162.18) scale(1.04 1)"><tspan x="0" y="0">EXCELLENT, UNMATCHED DESIGN</tspan></text>
</svg>